%TF.GenerationSoftware,KiCad,Pcbnew,10.0.3*%
%TF.CreationDate,2026-06-17T10:54:26+03:00*%
%TF.ProjectId,PBL06_RTC_Display,50424c30-365f-4525-9443-5f446973706c,rev?*%
%TF.SameCoordinates,Original*%
%TF.FileFunction,Soldermask,Bot*%
%TF.FilePolarity,Negative*%
%FSLAX46Y46*%
G04 Gerber Fmt 4.6, Leading zero omitted, Abs format (unit mm)*
G04 Created by KiCad (PCBNEW 10.0.3) date 2026-06-17 10:54:26*
%MOMM*%
%LPD*%
G01*
G04 APERTURE LIST*
G04 Aperture macros list*
%AMRoundRect*
0 Rectangle with rounded corners*
0 $1 Rounding radius*
0 $2 $3 $4 $5 $6 $7 $8 $9 X,Y pos of 4 corners*
0 Add a 4 corners polygon primitive as box body*
4,1,4,$2,$3,$4,$5,$6,$7,$8,$9,$2,$3,0*
0 Add four circle primitives for the rounded corners*
1,1,$1+$1,$2,$3*
1,1,$1+$1,$4,$5*
1,1,$1+$1,$6,$7*
1,1,$1+$1,$8,$9*
0 Add four rect primitives between the rounded corners*
20,1,$1+$1,$2,$3,$4,$5,0*
20,1,$1+$1,$4,$5,$6,$7,0*
20,1,$1+$1,$6,$7,$8,$9,0*
20,1,$1+$1,$8,$9,$2,$3,0*%
G04 Aperture macros list end*
%ADD10C,1.600000*%
%ADD11C,2.000000*%
%ADD12R,1.800000X1.800000*%
%ADD13C,1.800000*%
%ADD14C,1.500000*%
%ADD15RoundRect,0.250000X-0.550000X0.550000X-0.550000X-0.550000X0.550000X-0.550000X0.550000X0.550000X0*%
%ADD16C,3.000000*%
%ADD17R,2.600000X1.800000*%
%ADD18O,2.600000X1.800000*%
G04 APERTURE END LIST*
D10*
%TO.C,C5*%
X99340000Y-85500000D03*
X99340000Y-83000000D03*
%TD*%
%TO.C,C4*%
X105840000Y-59000000D03*
X103340000Y-59000000D03*
%TD*%
%TO.C,C3*%
X120840000Y-64500000D03*
X118340000Y-64500000D03*
%TD*%
D11*
%TO.C,SW3*%
X168090000Y-65750000D03*
X161590000Y-65750000D03*
X168090000Y-61250000D03*
X161590000Y-61250000D03*
%TD*%
D12*
%TO.C,D1*%
X188115000Y-81000000D03*
D13*
X185575000Y-81000000D03*
%TD*%
D10*
%TO.C,C1*%
X128840000Y-94750000D03*
X128840000Y-92250000D03*
%TD*%
D14*
%TO.C,Y1*%
X116400000Y-84000000D03*
X121280000Y-84000000D03*
%TD*%
D10*
%TO.C,R5*%
X180680000Y-90000000D03*
X190840000Y-90000000D03*
%TD*%
%TO.C,R3*%
X192840000Y-137000000D03*
X192840000Y-126840000D03*
%TD*%
D15*
%TO.C,U1*%
X148500000Y-123760000D03*
D10*
X145960000Y-123760000D03*
X143420000Y-123760000D03*
X140880000Y-123760000D03*
X138340000Y-123760000D03*
X135800000Y-123760000D03*
X133260000Y-123760000D03*
X130720000Y-123760000D03*
X128180000Y-123760000D03*
X125640000Y-123760000D03*
X123100000Y-123760000D03*
X120560000Y-123760000D03*
X118020000Y-123760000D03*
X115480000Y-123760000D03*
X112940000Y-123760000D03*
X110400000Y-123760000D03*
X107860000Y-123760000D03*
X105320000Y-123760000D03*
X102780000Y-123760000D03*
X100240000Y-123760000D03*
X100240000Y-139000000D03*
X102780000Y-139000000D03*
X105320000Y-139000000D03*
X107860000Y-139000000D03*
X110400000Y-139000000D03*
X112940000Y-139000000D03*
X115480000Y-139000000D03*
X118020000Y-139000000D03*
X120560000Y-139000000D03*
X123100000Y-139000000D03*
X125640000Y-139000000D03*
X128180000Y-139000000D03*
X130720000Y-139000000D03*
X133260000Y-139000000D03*
X135800000Y-139000000D03*
X138340000Y-139000000D03*
X140880000Y-139000000D03*
X143420000Y-139000000D03*
X145960000Y-139000000D03*
X148500000Y-139000000D03*
%TD*%
%TO.C,R1*%
X127680000Y-78000000D03*
X137840000Y-78000000D03*
%TD*%
%TO.C,R4*%
X176680000Y-70000000D03*
X186840000Y-70000000D03*
%TD*%
D11*
%TO.C,SW1*%
X139090000Y-65750000D03*
X132590000Y-65750000D03*
X139090000Y-61250000D03*
X132590000Y-61250000D03*
%TD*%
%TO.C,SW2*%
X153590000Y-65750000D03*
X147090000Y-65750000D03*
X153590000Y-61250000D03*
X147090000Y-61250000D03*
%TD*%
%TO.C,SW4*%
X105840000Y-75500000D03*
X99340000Y-75500000D03*
X105840000Y-71000000D03*
X99340000Y-71000000D03*
%TD*%
D16*
%TO.C,DS1*%
X90840700Y-61500000D03*
X59840000Y-61500000D03*
X59840000Y-136498580D03*
X90840700Y-136499100D03*
D17*
X90840700Y-66999100D03*
D18*
X90840700Y-69539100D03*
X90840700Y-72079100D03*
X90840700Y-74619100D03*
X90840700Y-77159100D03*
X90840700Y-79699100D03*
X90840700Y-82239100D03*
X90840700Y-84779100D03*
X90840700Y-87319100D03*
X90840700Y-89859100D03*
X90840700Y-92399100D03*
X90840700Y-94939100D03*
X90840700Y-97479100D03*
X90840700Y-100019100D03*
X90840700Y-102559100D03*
X90840700Y-105099100D03*
%TD*%
D10*
%TO.C,C2*%
X115840000Y-94000000D03*
X115840000Y-91500000D03*
%TD*%
%TO.C,R2*%
X180180000Y-117000000D03*
X190340000Y-117000000D03*
%TD*%
M02*
