M48
; DRILL file KiCad 10.0.3 date 2026-06-17T10:56:54
; FORMAT={-:-/ absolute / metric / decimal}
; #@! TF.CreationDate,2026-06-17T10:56:54+03:00
; #@! TF.GenerationSoftware,Kicad,Pcbnew,10.0.3
; #@! TF.FileFunction,Plated,1,2,PTH
FMAT,2
METRIC
; #@! TA.AperFunction,Plated,PTH,ViaDrill
T1C0.300
; #@! TA.AperFunction,Plated,PTH,ComponentDrill
T2C0.800
; #@! TA.AperFunction,Plated,PTH,ComponentDrill
T3C0.900
; #@! TA.AperFunction,Plated,PTH,ComponentDrill
T4C1.100
; #@! TA.AperFunction,Plated,PTH,ComponentDrill
T5C1.200
; #@! TA.AperFunction,Plated,PTH,ComponentDrill
T6C2.500
%
G90
G05
T1
X98.0Y-109.0
X102.0Y-100.0
X115.0Y-100.5
X118.5Y-98.5
X122.0Y-108.0
X124.0Y-103.5
X158.0Y-66.0
X158.0Y-69.0
X158.5Y-92.5
X160.5Y-88.0
X161.0Y-92.0
X163.0Y-87.0
X168.0Y-77.5
X171.5Y-71.5
X189.0Y-96.5
X191.5Y-95.0
T2
X99.34Y-83.0
X99.34Y-85.5
X100.24Y-123.76
X100.24Y-139.0
X102.78Y-123.76
X102.78Y-139.0
X103.34Y-59.0
X105.32Y-123.76
X105.32Y-139.0
X105.84Y-59.0
X107.86Y-123.76
X107.86Y-139.0
X110.4Y-123.76
X110.4Y-139.0
X112.94Y-123.76
X112.94Y-139.0
X115.48Y-123.76
X115.48Y-139.0
X115.84Y-91.5
X115.84Y-94.0
X116.4Y-84.0
X118.02Y-123.76
X118.02Y-139.0
X118.34Y-64.5
X120.56Y-123.76
X120.56Y-139.0
X120.84Y-64.5
X121.28Y-84.0
X123.1Y-123.76
X123.1Y-139.0
X125.64Y-123.76
X125.64Y-139.0
X127.68Y-78.0
X128.18Y-123.76
X128.18Y-139.0
X128.84Y-92.25
X128.84Y-94.75
X130.72Y-123.76
X130.72Y-139.0
X133.26Y-123.76
X133.26Y-139.0
X135.8Y-123.76
X135.8Y-139.0
X137.84Y-78.0
X138.34Y-123.76
X138.34Y-139.0
X140.88Y-123.76
X140.88Y-139.0
X143.42Y-123.76
X143.42Y-139.0
X145.96Y-123.76
X145.96Y-139.0
X148.5Y-123.76
X148.5Y-139.0
X176.68Y-70.0
X180.18Y-117.0
X180.68Y-90.0
X186.84Y-70.0
X190.34Y-117.0
X190.84Y-90.0
X192.84Y-126.84
X192.84Y-137.0
T3
X185.575Y-81.0
X188.115Y-81.0
T4
X99.34Y-71.0
X99.34Y-75.5
X105.84Y-71.0
X105.84Y-75.5
X132.59Y-61.25
X132.59Y-65.75
X139.09Y-61.25
X139.09Y-65.75
X147.09Y-61.25
X147.09Y-65.75
X153.59Y-61.25
X153.59Y-65.75
X161.59Y-61.25
X161.59Y-65.75
X168.09Y-61.25
X168.09Y-65.75
T5
X90.841Y-66.999
X90.841Y-69.539
X90.841Y-72.079
X90.841Y-74.619
X90.841Y-77.159
X90.841Y-79.699
X90.841Y-82.239
X90.841Y-84.779
X90.841Y-87.319
X90.841Y-89.859
X90.841Y-92.399
X90.841Y-94.939
X90.841Y-97.479
X90.841Y-100.019
X90.841Y-102.559
X90.841Y-105.099
T6
X59.84Y-61.5
X59.84Y-136.499
X90.841Y-61.5
X90.841Y-136.499
M30
